<svg width="24" height="25" viewBox="0 0 24 25" fill="none" xmlns="http://www.w3.org/2000/svg">
<path d="M11.999 7.56685C10.7726 7.56685 9.59651 8.05402 8.72934 8.92119C7.86217 9.78835 7.375 10.9645 7.375 12.1908C7.375 13.4172 7.86217 14.5933 8.72934 15.4605C9.59651 16.3277 10.7726 16.8148 11.999 16.8148C13.2254 16.8148 14.4015 16.3277 15.2687 15.4605C16.1358 14.5933 16.623 13.4172 16.623 12.1908C16.623 10.9645 16.1358 9.78835 15.2687 8.92119C14.4015 8.05402 13.2254 7.56685 11.999 7.56685ZM11.999 15.1938C11.2023 15.1938 10.4382 14.8774 9.87485 14.314C9.31149 13.7506 8.995 12.9866 8.995 12.1898C8.995 11.3931 9.31149 10.6291 9.87485 10.0657C10.4382 9.50234 11.2023 9.18585 11.999 9.18585C12.7957 9.18585 13.5598 9.50234 14.1231 10.0657C14.6865 10.6291 15.003 11.3931 15.003 12.1898C15.003 12.9866 14.6865 13.7506 14.1231 14.314C13.5598 14.8774 12.7957 15.1938 11.999 15.1938ZM16.805 8.47485C17.0909 8.47485 17.3651 8.36127 17.5673 8.15911C17.7694 7.95694 17.883 7.68275 17.883 7.39685C17.883 7.11094 17.7694 6.83675 17.5673 6.63459C17.3651 6.43242 17.0909 6.31885 16.805 6.31885C16.5191 6.31885 16.2449 6.43242 16.0427 6.63459C15.8406 6.83675 15.727 7.11094 15.727 7.39685C15.727 7.68275 15.8406 7.95694 16.0427 8.15911C16.2449 8.36127 16.5191 8.47485 16.805 8.47485Z" fill="white"/>
<path d="M20.533 6.30082C20.3015 5.703 19.9477 5.16011 19.4943 4.70688C19.041 4.25366 18.4979 3.9001 17.9 3.66882C17.2003 3.4062 16.4612 3.26418 15.714 3.24882C14.751 3.20682 14.446 3.19482 12.004 3.19482C9.56201 3.19482 9.24901 3.19482 8.29401 3.24882C7.5474 3.26338 6.80877 3.40543 6.11001 3.66882C5.51195 3.89983 4.96878 4.25329 4.51535 4.70655C4.06192 5.15981 3.70824 5.70285 3.47701 6.30082C3.21432 7.00044 3.07263 7.73966 3.05801 8.48682C3.01501 9.44882 3.00201 9.75382 3.00201 12.1968C3.00201 14.6388 3.00201 14.9498 3.05801 15.9068C3.07301 16.6548 3.21401 17.3928 3.47701 18.0938C3.70889 18.6916 4.06291 19.2344 4.51645 19.6876C4.96999 20.1408 5.51308 20.4944 6.11101 20.7258C6.80844 20.999 7.54738 21.1512 8.29601 21.1758C9.25901 21.2178 9.56401 21.2308 12.006 21.2308C14.448 21.2308 14.761 21.2308 15.716 21.1758C16.4631 21.1606 17.2022 21.0189 17.902 20.7568C18.4998 20.525 19.0426 20.1711 19.496 19.7178C19.9493 19.2645 20.3032 18.7216 20.535 18.1238C20.798 17.4238 20.939 16.6858 20.954 15.9378C20.997 14.9758 21.01 14.6708 21.01 12.2278C21.01 9.78482 21.01 9.47482 20.954 8.51782C20.9423 7.7601 20.7999 7.01008 20.533 6.30082ZM19.315 15.8328C19.3085 16.4091 19.2033 16.98 19.004 17.5208C18.8538 17.9097 18.6239 18.2628 18.3291 18.5575C18.0342 18.8522 17.681 19.0819 17.292 19.2318C16.7572 19.4302 16.1924 19.5354 15.622 19.5428C14.672 19.5868 14.404 19.5978 11.968 19.5978C9.53001 19.5978 9.28101 19.5978 8.31301 19.5428C7.74261 19.5359 7.17766 19.4307 6.64301 19.2318C6.25289 19.0827 5.8984 18.8533 5.60246 18.5586C5.30653 18.2639 5.07574 17.9103 4.92501 17.5208C4.72846 16.9859 4.62333 16.4217 4.61401 15.8518C4.57101 14.9018 4.56101 14.6338 4.56101 12.1978C4.56101 9.76082 4.56101 9.51182 4.61401 8.54282C4.62048 7.96685 4.72567 7.39624 4.92501 6.85582C5.23001 6.06682 5.85501 5.44582 6.64401 5.14382C7.1786 4.94596 7.74304 4.84079 8.31301 4.83282C9.26301 4.78982 9.53101 4.77782 11.968 4.77782C14.405 4.77782 14.655 4.77782 15.622 4.83282C16.1924 4.83969 16.7574 4.9449 17.292 5.14382C17.681 5.29404 18.0342 5.52395 18.3291 5.81879C18.6239 6.11362 18.8538 6.46686 19.004 6.85582C19.201 7.39082 19.306 7.95582 19.315 8.52482C19.358 9.47582 19.369 9.74282 19.369 12.1798C19.369 14.6158 19.369 14.8778 19.326 15.8338H19.315V15.8328Z" fill="white"/>
</svg>
