<svg width="24" height="25" viewBox="0 0 24 25" fill="none" xmlns="http://www.w3.org/2000/svg">
<path d="M19.633 8.18699C19.646 8.36199 19.646 8.53599 19.646 8.70999C19.646 14.035 15.593 20.171 8.186 20.171C5.904 20.171 3.784 19.51 2 18.362C2.324 18.399 2.636 18.412 2.973 18.412C4.78599 18.4164 6.54765 17.8101 7.974 16.691C7.13342 16.6758 6.31858 16.3984 5.64324 15.8977C4.9679 15.397 4.46578 14.6979 4.207 13.898C4.456 13.935 4.706 13.96 4.968 13.96C5.329 13.96 5.692 13.91 6.029 13.823C5.11667 13.639 4.29628 13.1446 3.70739 12.4239C3.1185 11.7032 2.7975 10.8007 2.799 9.86999V9.81999C3.336 10.119 3.959 10.306 4.619 10.331C4.06603 9.96364 3.61261 9.46509 3.29922 8.87984C2.98583 8.29459 2.82222 7.64086 2.823 6.97699C2.823 6.22899 3.022 5.54299 3.371 4.94499C4.38314 6.19001 5.6455 7.20855 7.07634 7.93464C8.50717 8.66074 10.0746 9.0782 11.677 9.15999C11.615 8.85999 11.577 8.54899 11.577 8.23699C11.5765 7.70787 11.6803 7.18385 11.8825 6.69491C12.0848 6.20598 12.3815 5.76173 12.7556 5.38759C13.1297 5.01345 13.574 4.71677 14.0629 4.51453C14.5519 4.31229 15.0759 4.20846 15.605 4.20899C16.765 4.20899 17.812 4.69499 18.548 5.48099C19.4498 5.3066 20.3145 4.97741 21.104 4.50799C20.804 5.43799 20.174 6.22799 19.333 6.72799C20.1328 6.63677 20.9144 6.42644 21.652 6.10399C21.1011 6.90707 20.4185 7.61132 19.633 8.18699Z" fill="white"/>
</svg>
