<svg width="24" height="25" viewBox="0 0 24 25" fill="none" xmlns="http://www.w3.org/2000/svg">
<path d="M21.593 7.39295C21.4791 6.97035 21.2565 6.58495 20.9474 6.27512C20.6383 5.96528 20.2534 5.74181 19.831 5.62695C18.265 5.19695 12.001 5.18995 12.001 5.18995C12.001 5.18995 5.73602 5.18295 4.16902 5.59395C3.74695 5.7141 3.36285 5.94073 3.05359 6.25208C2.74433 6.56344 2.52031 6.94907 2.40302 7.37195C1.99002 8.93795 1.98602 12.1859 1.98602 12.1859C1.98602 12.1859 1.98202 15.4499 2.39202 16.9999C2.62202 17.8569 3.29702 18.5339 4.15502 18.7649C5.73702 19.195 11.985 19.2019 11.985 19.2019C11.985 19.2019 18.25 19.2089 19.816 18.7989C20.2385 18.6843 20.6238 18.4613 20.9337 18.1521C21.2436 17.8429 21.4674 17.4582 21.583 17.0359C21.997 15.4709 22 12.2239 22 12.2239C22 12.2239 22.02 8.95895 21.593 7.39295ZM9.99603 15.1949L10.001 9.19495L15.208 12.1999L9.99603 15.1949Z" fill="white"/>
</svg>
