<svg width="40" height="37" viewBox="0 0 40 37" fill="none" xmlns="http://www.w3.org/2000/svg">
<path d="M39.2919 36.2357C39.1455 36.3818 38.9529 36.4727 38.747 36.4928C38.5411 36.513 38.3346 36.4611 38.1627 36.3461C37.9907 36.2311 37.864 36.06 37.804 35.862C37.744 35.6641 37.7545 35.4514 37.8336 35.2603C37.9128 35.0692 38.0558 34.9114 38.2382 34.8139C38.4206 34.7163 38.6312 34.685 38.8341 34.7253C39.0371 34.7656 39.2197 34.875 39.3511 35.0348C39.4824 35.1947 39.5542 35.3951 39.5544 35.6019C39.5565 35.7199 39.5342 35.8371 39.489 35.9461C39.4439 36.0551 39.3768 36.1537 39.2919 36.2357ZM38.1114 35.0588C37.9685 35.2035 37.8884 35.3986 37.8884 35.6019C37.8884 35.8053 37.9685 36.0004 38.1114 36.1451C38.2556 36.2889 38.4509 36.3696 38.6545 36.3696C38.8582 36.3696 39.0535 36.2889 39.1977 36.1451C39.321 35.9973 39.3846 35.8086 39.3759 35.6163C39.3672 35.424 39.2869 35.2419 39.1507 35.1057C39.0146 34.9696 38.8325 34.8893 38.6402 34.8806C38.4478 34.8719 38.2592 34.9355 38.1114 35.0588ZM38.64 35.1077C38.732 35.1033 38.824 35.1156 38.9116 35.1439C38.9604 35.1638 39.0014 35.1988 39.0288 35.2438C39.0562 35.2887 39.0684 35.3413 39.0637 35.3937C39.0669 35.432 39.0597 35.4703 39.0428 35.5048C39.0259 35.5392 39 35.5684 38.9678 35.5893C38.9237 35.6128 38.8759 35.6287 38.8265 35.6363C38.8596 35.6395 38.8917 35.6495 38.9207 35.6657C38.9496 35.6819 38.9749 35.704 38.9949 35.7305C39.0274 35.7749 39.0462 35.8277 39.0492 35.8826V36.0274C39.0473 36.0443 39.0473 36.0613 39.0492 36.0781V36.0908H38.8881V35.9713C38.8881 35.8572 38.8573 35.7812 38.7939 35.7468C38.7325 35.7222 38.6663 35.7117 38.6002 35.716H38.468V36.0999H38.296V35.1167L38.64 35.1077ZM38.8211 35.2688C38.7552 35.2393 38.683 35.2269 38.6111 35.2326H38.468V35.5838H38.6256C38.6827 35.5868 38.7398 35.5788 38.7939 35.5603C38.8224 35.5491 38.8474 35.5303 38.8661 35.5061C38.8848 35.4819 38.8967 35.453 38.9004 35.4226C38.9041 35.3922 38.8995 35.3614 38.8872 35.3333C38.8748 35.3053 38.8551 35.2811 38.8302 35.2634L38.8211 35.2688Z" fill="black"/>
<path d="M32.752 0.5H7.37293C3.55439 0.5 0.445606 3.51645 0.445606 7.22092V29.7646C0.445606 33.5198 3.46024 36.4638 7.30956 36.4638H32.6886C36.5379 36.4638 39.5544 33.5198 39.5544 29.7646V7.22092C39.5544 3.45308 36.5669 0.5 32.752 0.5ZM38.7831 29.7628C38.7831 33.087 36.107 35.6925 32.6886 35.6925H7.30956C3.88573 35.6925 1.21511 33.0907 1.21511 29.7628V7.21911C1.21511 3.88219 3.931 1.2695 7.37112 1.2695H32.752C36.1342 1.2695 38.7831 3.88219 38.7831 7.21911V29.7628Z" fill="black"/>
<path d="M32.752 1.2695H7.37293C3.92194 1.2695 1.21692 3.88218 1.21692 7.21911V29.7628C1.21511 33.0907 3.88573 35.6925 7.30956 35.6925H32.6886C36.107 35.6925 38.7831 33.087 38.7831 29.7628V7.21911C38.7831 3.88218 36.1342 1.2695 32.752 1.2695Z" fill="#FCAF17"/>
<path d="M34.0303 21.9012H29.1308L28.3541 17.0126L25.4825 21.865H24.9393C24.6416 21.2805 24.4853 20.6343 24.483 19.9783C24.483 19.1455 24.5446 18.3307 24.5446 17.2625C24.5446 15.8574 24.1318 15.1042 23.0291 14.8399V14.8037C25.372 14.4778 26.4348 12.9279 26.4348 10.7443C26.4348 7.64459 24.3726 6.97105 21.6694 6.97105H14.4016L11.3236 21.5282H15.1929L16.3118 16.2322H18.8811C20.2517 16.2322 20.813 16.9022 20.813 18.1859C20.813 19.1618 20.7116 19.9349 20.7116 20.6863C20.7116 20.9651 20.7749 21.6115 20.9614 21.8614L23.7552 24.8108L21.3525 29.9801L26.4928 26.9346L30.3204 29.8732L29.5961 24.9973L34.0303 21.9012ZM20.0362 13.5109H16.9582L17.7005 10.002H20.5595C21.577 10.002 22.6344 10.2663 22.6344 11.512C22.6344 13.0818 21.4304 13.5109 20.0362 13.5109Z" fill="black"/>
<path d="M31.7743 22.6128H28.5243L27.9612 19.0767L25.8899 22.5784H22.6109L24.6043 24.6786L22.9657 28.1984L26.5471 26.071L29.368 28.2401L28.8429 24.6642L31.7743 22.6128Z" fill="white"/>
</svg>
