<svg width="36" height="37" viewBox="0 0 36 37" fill="none" xmlns="http://www.w3.org/2000/svg">
<g clip-path="url(#clip0_2_163)">
<path d="M36 18.5C36 8.55887 27.9411 0.5 18 0.5C8.05887 0.5 0 8.55887 0 18.5C0 28.4411 8.05887 36.5 18 36.5C27.9411 36.5 36 28.4411 36 18.5Z" fill="white" fill-opacity="0.15"/>
<path d="M24 25.25V23.75C24 22.9543 23.684 22.1913 23.1214 21.6286C22.5587 21.0661 21.7957 20.75 21 20.75H15C14.2044 20.75 13.4413 21.0661 12.8787 21.6286C12.3161 22.1913 12 22.9543 12 23.75V25.25" stroke="white" stroke-width="1.63636" stroke-linecap="round" stroke-linejoin="round"/>
<path d="M17.9999 17.75C19.6568 17.75 21 16.4068 21 14.75C21 13.0931 19.6568 11.75 17.9999 11.75C16.3431 11.75 15 13.0931 15 14.75C15 16.4068 16.3431 17.75 17.9999 17.75Z" stroke="white" stroke-width="1.63636" stroke-linecap="round" stroke-linejoin="round"/>
</g>
<defs>
<clipPath id="clip0_2_163">
<rect width="36" height="36" fill="white" transform="translate(0 0.5)"/>
</clipPath>
</defs>
</svg>
